<svg width="284" height="52" viewBox="0 0 284 52" fill="none" xmlns="http://www.w3.org/2000/svg">
<g filter="url(#filter0_di_2_25)">
<path d="M19.656 35.432C16.808 35.432 14.264 34.888 12.024 33.8C9.81599 32.712 8.08799 31.192 6.83999 29.24C5.59199 27.288 4.96799 25.064 4.96799 22.568V13.736C4.96799 11.24 5.57599 9.03199 6.79199 7.11199C8.03999 5.15999 9.75199 3.65599 11.928 2.59999C14.104 1.51199 16.6 0.967987 19.416 0.967987C22.232 0.967987 24.728 1.39999 26.904 2.26399C29.112 3.09599 30.824 4.27999 32.04 5.81599C33.256 7.31999 33.864 9.04799 33.864 11C33.864 12.184 33.464 13.128 32.664 13.832C31.896 14.504 30.856 14.84 29.544 14.84C28.904 14.84 28.2 14.744 27.432 14.552C27.496 13.784 27.528 13.032 27.528 12.296C27.528 10.6 26.776 9.22399 25.272 8.16799C23.768 7.11199 21.816 6.58399 19.416 6.58399C17.048 6.58399 15.112 7.25599 13.608 8.59999C12.136 9.91199 11.4 11.624 11.4 13.736V22.568C11.4 24.712 12.168 26.456 13.704 27.8C15.24 29.144 17.224 29.816 19.656 29.816C22.056 29.816 24.008 29.288 25.512 28.232C27.016 27.176 27.768 25.816 27.768 24.152C27.768 23.384 27.736 22.648 27.672 21.944C28.472 21.784 29.144 21.704 29.688 21.704C31.032 21.704 32.104 22.056 32.904 22.76C33.704 23.464 34.104 24.424 34.104 25.64C34.104 27.528 33.496 29.224 32.28 30.728C31.064 32.2 29.352 33.352 27.144 34.184C24.968 35.016 22.472 35.432 19.656 35.432Z" fill="#2DD2B7"/>
<path d="M45.4875 35.432C43.8555 35.432 42.3515 35.112 40.9755 34.472C39.6315 33.832 38.5435 32.92 37.7115 31.736C36.9115 30.52 36.5115 29.08 36.5115 27.416C36.5115 25.752 36.9435 24.312 37.8075 23.096C38.6715 21.848 39.8395 20.904 41.3115 20.264C42.8155 19.592 44.4635 19.256 46.2555 19.256C47.7275 19.256 49.0395 19.496 50.1915 19.976C51.3755 20.424 52.4635 21.112 53.4555 22.04L53.6955 21.8C53.4075 21.512 52.9115 21.08 52.2075 20.504V19.544C52.2075 18.232 51.7435 17.192 50.8155 16.424C49.8875 15.656 48.5915 15.272 46.9275 15.272C43.9515 15.272 41.7595 16.36 40.3515 18.536C39.6475 18.312 39.0555 17.96 38.5755 17.48C38.0955 16.968 37.8555 16.424 37.8555 15.848C37.8555 14.888 38.2875 14.008 39.1515 13.208C40.0155 12.408 41.1835 11.768 42.6555 11.288C44.1275 10.808 45.7275 10.568 47.4555 10.568C50.8475 10.568 53.4715 11.368 55.3275 12.968C57.1835 14.536 58.1115 16.68 58.1115 19.4V31.4C58.1115 32.808 57.6635 33.832 56.7675 34.472C55.8715 35.112 54.4635 35.432 52.5435 35.432V33.464C53.0875 32.92 53.4555 32.52 53.6475 32.264L53.4555 32.024C52.3995 33.144 51.2635 33.992 50.0475 34.568C48.8635 35.144 47.3435 35.432 45.4875 35.432ZM47.0235 31.064C48.6875 31.064 49.9835 30.744 50.9115 30.104C51.8395 29.464 52.3035 28.552 52.3035 27.368C52.3035 26.216 51.8235 25.304 50.8635 24.632C49.9355 23.96 48.6715 23.624 47.0715 23.624C45.5995 23.624 44.4315 23.96 43.5675 24.632C42.7355 25.272 42.3195 26.184 42.3195 27.368C42.3195 28.584 42.7355 29.512 43.5675 30.152C44.3995 30.76 45.5515 31.064 47.0235 31.064Z" fill="#2DD2B7"/>
<path d="M63.4882 15.176C63.4882 13.704 63.9522 12.568 64.8802 11.768C65.8082 10.968 67.2162 10.568 69.1042 10.568V13.448C68.5282 14.152 68.1442 14.664 67.9522 14.984L68.2882 15.176C69.2802 13.672 70.3362 12.536 71.4562 11.768C72.5762 10.968 73.9042 10.568 75.4402 10.568C78.2242 10.568 80.1442 11.928 81.2002 14.648C82.0002 13.368 83.0242 12.376 84.2722 11.672C85.5202 10.936 86.9282 10.568 88.4962 10.568C90.6722 10.568 92.4002 11.368 93.6802 12.968C94.9922 14.536 95.6482 16.552 95.6482 19.016V31.784C95.6482 33.064 95.1522 33.992 94.1602 34.568C93.2002 35.144 91.7282 35.432 89.7442 35.432V19.496C89.7442 18.312 89.4722 17.368 88.9282 16.664C88.4162 15.96 87.6162 15.608 86.5282 15.608C85.3762 15.608 84.4002 16.008 83.6002 16.808C82.8322 17.576 82.4482 18.792 82.4482 20.456V31.784C82.4482 33.064 81.9682 33.992 81.0082 34.568C80.0802 35.144 78.6242 35.432 76.6402 35.432V19.496C76.6402 18.28 76.3842 17.336 75.8722 16.664C75.3602 15.96 74.5602 15.608 73.4722 15.608C72.1282 15.608 71.1042 16.072 70.4002 17C69.7282 17.896 69.3922 19.128 69.3922 20.696V31.784C69.3922 33.064 68.8962 33.992 67.9042 34.568C66.9442 35.144 65.4722 35.432 63.4882 35.432V15.176Z" fill="#2DD2B7"/>
<path d="M104.972 8.31199C103.82 8.31199 102.86 7.97599 102.092 7.30399C101.356 6.59999 100.988 5.70399 100.988 4.61599C100.988 3.55999 101.356 2.69599 102.092 2.02399C102.86 1.31999 103.82 0.967987 104.972 0.967987C106.124 0.967987 107.068 1.31999 107.804 2.02399C108.572 2.69599 108.956 3.55999 108.956 4.61599C108.956 5.70399 108.572 6.59999 107.804 7.30399C107.068 7.97599 106.124 8.31199 104.972 8.31199ZM101.948 14.216C101.948 12.904 102.444 11.976 103.436 11.432C104.428 10.856 105.932 10.568 107.948 10.568V31.784C107.948 33.064 107.452 33.992 106.46 34.568C105.468 35.144 103.964 35.432 101.948 35.432V14.216Z" fill="#2DD2B7"/>
<path d="M122.501 35.432C119.845 35.432 117.829 34.68 116.453 33.176C115.109 31.64 114.437 29.704 114.437 27.368V4.61599C114.437 3.30399 114.917 2.37599 115.877 1.83199C116.869 1.25599 118.389 0.967987 120.437 0.967987V27.128C120.437 28.216 120.677 29.016 121.157 29.528C121.637 30.008 122.405 30.248 123.461 30.248C124.645 30.248 125.829 29.944 127.013 29.336C127.333 29.624 127.573 29.992 127.733 30.44C127.925 30.856 128.021 31.288 128.021 31.736C128.021 32.696 127.541 33.56 126.581 34.328C125.621 35.064 124.261 35.432 122.501 35.432Z" fill="#2DD2B7"/>
<path d="M138.813 35.432C136.157 35.432 134.141 34.68 132.765 33.176C131.421 31.64 130.749 29.704 130.749 27.368V4.61599C130.749 3.30399 131.229 2.37599 132.189 1.83199C133.181 1.25599 134.701 0.967987 136.749 0.967987V27.128C136.749 28.216 136.989 29.016 137.469 29.528C137.949 30.008 138.717 30.248 139.773 30.248C140.957 30.248 142.141 29.944 143.325 29.336C143.645 29.624 143.885 29.992 144.045 30.44C144.237 30.856 144.333 31.288 144.333 31.736C144.333 32.696 143.853 33.56 142.893 34.328C141.933 35.064 140.573 35.432 138.813 35.432Z" fill="#2DD2B7"/>
<path d="M155.222 35.432C153.59 35.432 152.086 35.112 150.71 34.472C149.366 33.832 148.278 32.92 147.446 31.736C146.646 30.52 146.246 29.08 146.246 27.416C146.246 25.752 146.678 24.312 147.542 23.096C148.406 21.848 149.574 20.904 151.046 20.264C152.55 19.592 154.198 19.256 155.99 19.256C157.462 19.256 158.774 19.496 159.926 19.976C161.11 20.424 162.198 21.112 163.19 22.04L163.43 21.8C163.142 21.512 162.646 21.08 161.942 20.504V19.544C161.942 18.232 161.478 17.192 160.55 16.424C159.622 15.656 158.326 15.272 156.662 15.272C153.686 15.272 151.494 16.36 150.086 18.536C149.382 18.312 148.79 17.96 148.31 17.48C147.83 16.968 147.59 16.424 147.59 15.848C147.59 14.888 148.022 14.008 148.886 13.208C149.75 12.408 150.918 11.768 152.39 11.288C153.862 10.808 155.462 10.568 157.19 10.568C160.582 10.568 163.206 11.368 165.062 12.968C166.918 14.536 167.846 16.68 167.846 19.4V31.4C167.846 32.808 167.398 33.832 166.502 34.472C165.606 35.112 164.198 35.432 162.278 35.432V33.464C162.822 32.92 163.19 32.52 163.382 32.264L163.19 32.024C162.134 33.144 160.998 33.992 159.782 34.568C158.598 35.144 157.078 35.432 155.222 35.432ZM156.758 31.064C158.422 31.064 159.718 30.744 160.646 30.104C161.574 29.464 162.038 28.552 162.038 27.368C162.038 26.216 161.558 25.304 160.598 24.632C159.67 23.96 158.406 23.624 156.806 23.624C155.334 23.624 154.166 23.96 153.302 24.632C152.47 25.272 152.054 26.184 152.054 27.368C152.054 28.584 152.47 29.512 153.302 30.152C154.134 30.76 155.286 31.064 156.758 31.064Z" fill="#2DD2B7"/>
<path d="M176 13.688C176 12.12 176.528 10.888 177.584 9.99199C178.64 9.06399 180.064 8.59999 181.856 8.59999L198.08 33.944L198.56 33.56L196.592 30.296V8.59999C198.672 8.59999 200.24 8.99999 201.296 9.79999C202.384 10.6 202.928 11.784 202.928 13.352V38.696C202.928 39.88 202.416 40.904 201.392 41.768C200.4 42.632 199.248 43.064 197.936 43.064L180.848 16.328L180.368 16.76L182.336 20.024V38.312C182.336 39.88 181.792 41.064 180.704 41.864C179.648 42.664 178.08 43.064 176 43.064V13.688Z" fill="#2DB7D2"/>
<path d="M217.344 43.064C215.264 43.064 213.376 42.696 211.68 41.96C210.016 41.192 208.705 40.136 207.745 38.792C206.785 37.448 206.305 35.928 206.305 34.232V27.464C206.305 25.736 206.769 24.168 207.697 22.76C208.657 21.352 209.969 20.248 211.633 19.448C213.297 18.616 215.2 18.2 217.344 18.2C219.488 18.2 221.393 18.616 223.057 19.448C224.753 20.248 226.065 21.352 226.993 22.76C227.953 24.168 228.432 25.736 228.432 27.464V34.232C228.432 35.928 227.937 37.448 226.945 38.792C225.985 40.136 224.656 41.192 222.96 41.96C221.296 42.696 219.424 43.064 217.344 43.064ZM217.344 37.928C218.944 37.928 220.193 37.56 221.089 36.824C222.017 36.088 222.48 35.096 222.48 33.848V27.752C222.48 26.44 222.017 25.384 221.089 24.584C220.193 23.752 218.944 23.336 217.344 23.336C215.776 23.336 214.529 23.752 213.601 24.584C212.673 25.384 212.208 26.44 212.208 27.752V33.848C212.208 35.096 212.673 36.088 213.601 36.824C214.529 37.56 215.776 37.928 217.344 37.928Z" fill="#2DB7D2"/>
<path d="M240.801 43.064C239.073 43.064 237.521 42.696 236.145 41.96C234.769 41.224 233.681 40.216 232.881 38.936C232.081 37.624 231.681 36.12 231.681 34.424V26.84C231.681 25.176 232.097 23.688 232.929 22.376C233.761 21.064 234.913 20.04 236.385 19.304C237.889 18.568 239.553 18.2 241.377 18.2C242.561 18.2 243.777 18.456 245.025 18.968C246.305 19.448 247.377 20.104 248.241 20.936L248.433 20.696C248.273 20.44 247.921 20.12 247.377 19.736V12.632C247.377 11.352 247.873 10.36 248.865 9.65599C249.889 8.95199 251.425 8.59999 253.473 8.59999V38.936C253.473 40.12 253.025 41.112 252.129 41.912C251.233 42.68 249.841 43.064 247.953 43.064V40.424C248.369 39.912 248.673 39.496 248.865 39.176L248.625 38.984C247.633 40.328 246.529 41.352 245.313 42.056C244.129 42.728 242.625 43.064 240.801 43.064ZM242.577 37.88C244.017 37.88 245.185 37.544 246.081 36.872C247.009 36.168 247.473 35.288 247.473 34.232V26.984C247.473 25.96 247.009 25.112 246.081 24.44C245.185 23.736 244.001 23.384 242.529 23.384C240.961 23.384 239.745 23.72 238.881 24.392C238.049 25.032 237.633 25.96 237.633 27.176V33.992C237.633 35.272 238.049 36.248 238.881 36.92C239.745 37.56 240.977 37.88 242.577 37.88Z" fill="#2DB7D2"/>
<path d="M269.573 43.064C267.589 43.064 265.781 42.68 264.149 41.912C262.517 41.112 261.221 40.04 260.261 38.696C259.301 37.32 258.821 35.784 258.821 34.088V27.704C258.821 25.912 259.317 24.296 260.309 22.856C261.301 21.416 262.613 20.28 264.245 19.448C265.909 18.616 267.701 18.2 269.621 18.2C271.509 18.2 273.237 18.6 274.805 19.4C276.405 20.168 277.669 21.256 278.597 22.664C279.525 24.04 279.989 25.624 279.989 27.416V30.104C279.989 30.808 279.717 31.4 279.173 31.88C278.661 32.36 278.005 32.6 277.205 32.6H264.629V33.656C264.629 35.032 265.045 36.152 265.877 37.016C266.709 37.88 267.957 38.312 269.621 38.312C271.221 38.312 272.405 37.96 273.173 37.256C273.973 36.552 274.373 35.64 274.373 34.52C274.949 34.456 275.349 34.424 275.573 34.424C276.757 34.424 277.685 34.696 278.357 35.24C279.029 35.752 279.365 36.488 279.365 37.448C279.365 38.376 278.933 39.272 278.069 40.136C277.205 41 276.021 41.704 274.517 42.248C273.013 42.792 271.365 43.064 269.573 43.064ZM274.565 28.328V27.416C274.565 26.072 274.101 24.984 273.173 24.152C272.245 23.32 271.045 22.904 269.573 22.904C268.101 22.904 266.901 23.32 265.973 24.152C265.077 24.952 264.629 26.04 264.629 27.416V28.328H274.565Z" fill="#2DB7D2"/>
</g>
<defs>
<filter id="filter0_di_2_25" x="0.967987" y="0.967987" width="283.021" height="50.096" filterUnits="userSpaceOnUse" color-interpolation-filters="sRGB">
<feFlood flood-opacity="0" result="BackgroundImageFix"/>
<feColorMatrix in="SourceAlpha" type="matrix" values="0 0 0 0 0 0 0 0 0 0 0 0 0 0 0 0 0 0 127 0" result="hardAlpha"/>
<feOffset dy="4"/>
<feGaussianBlur stdDeviation="2"/>
<feComposite in2="hardAlpha" operator="out"/>
<feColorMatrix type="matrix" values="0 0 0 0 0 0 0 0 0 0 0 0 0 0 0 0 0 0 0.25 0"/>
<feBlend mode="normal" in2="BackgroundImageFix" result="effect1_dropShadow_2_25"/>
<feBlend mode="normal" in="SourceGraphic" in2="effect1_dropShadow_2_25" result="shape"/>
<feColorMatrix in="SourceAlpha" type="matrix" values="0 0 0 0 0 0 0 0 0 0 0 0 0 0 0 0 0 0 127 0" result="hardAlpha"/>
<feOffset dx="5" dy="5"/>
<feGaussianBlur stdDeviation="2"/>
<feComposite in2="hardAlpha" operator="arithmetic" k2="-1" k3="1"/>
<feColorMatrix type="matrix" values="0 0 0 0 0 0 0 0 0 0 0 0 0 0 0 0 0 0 0.25 0"/>
<feBlend mode="normal" in2="shape" result="effect2_innerShadow_2_25"/>
</filter>
</defs>
</svg>
