<svg width="803" height="33" viewBox="0 0 803 33" fill="none" xmlns="http://www.w3.org/2000/svg">
<g filter="url(#filter0_d_4_129)">
<rect x="4" y="25" width="25" height="5" transform="rotate(-90 4 25)" fill="#40C06B"/>
<rect x="34" y="25" width="25" height="5" transform="rotate(-90 34 25)" fill="#40C06B"/>
<rect x="24" y="25" width="25" height="5" transform="rotate(-90 24 25)" fill="#40C06B"/>
<rect x="14" y="25" width="25" height="5" transform="rotate(-90 14 25)" fill="#40C06B"/>
<rect x="44" y="25" width="25" height="5" transform="rotate(-90 44 25)" fill="#40C06B"/>
<rect x="74" y="25" width="25" height="5" transform="rotate(-90 74 25)" fill="#40C06B"/>
<rect x="64" y="25" width="25" height="5" transform="rotate(-90 64 25)" fill="#40C06B"/>
<rect x="54" y="25" width="25" height="5" transform="rotate(-90 54 25)" fill="#40C06B"/>
<rect x="164" y="25" width="25" height="5" transform="rotate(-90 164 25)" fill="#40C06B"/>
<rect x="194" y="25" width="25" height="5" transform="rotate(-90 194 25)" fill="#40C06B"/>
<rect x="184" y="25" width="25" height="5" transform="rotate(-90 184 25)" fill="#40C06B"/>
<rect x="174" y="25" width="25" height="5" transform="rotate(-90 174 25)" fill="#40C06B"/>
<rect x="204" y="25" width="25" height="5" transform="rotate(-90 204 25)" fill="#5ABD62"/>
<rect x="234" y="25" width="25" height="5" transform="rotate(-90 234 25)" fill="#62BD60"/>
<rect x="224" y="25" width="25" height="5" transform="rotate(-90 224 25)" fill="#60BD60"/>
<rect x="214" y="25" width="25" height="5" transform="rotate(-90 214 25)" fill="#5DBD61"/>
<rect x="84" y="25" width="25" height="5" transform="rotate(-90 84 25)" fill="#40C06B"/>
<rect x="114" y="25" width="25" height="5" transform="rotate(-90 114 25)" fill="#40C06B"/>
<rect x="104" y="25" width="25" height="5" transform="rotate(-90 104 25)" fill="#40C06B"/>
<rect x="94" y="25" width="25" height="5" transform="rotate(-90 94 25)" fill="#40C06B"/>
<rect x="124" y="25" width="25" height="5" transform="rotate(-90 124 25)" fill="#40C06B"/>
<rect x="154" y="25" width="25" height="5" transform="rotate(-90 154 25)" fill="#40C06B"/>
<rect x="144" y="25" width="25" height="5" transform="rotate(-90 144 25)" fill="#40C06B"/>
<rect x="134" y="25" width="25" height="5" transform="rotate(-90 134 25)" fill="#40C06B"/>
<rect x="724" y="25" width="25" height="5" transform="rotate(-90 724 25)" fill="#40C06B"/>
<rect x="754" y="25" width="25" height="5" transform="rotate(-90 754 25)" fill="#40C06B"/>
<rect x="744" y="25" width="25" height="5" transform="rotate(-90 744 25)" fill="#40C06B"/>
<rect x="734" y="25" width="25" height="5" transform="rotate(-90 734 25)" fill="#40C06B"/>
<rect x="764" y="25" width="25" height="5" transform="rotate(-90 764 25)" fill="#C05040"/>
<rect x="794" y="25" width="25" height="5" transform="rotate(-90 794 25)" fill="#C04540"/>
<rect x="784" y="25" width="25" height="5" transform="rotate(-90 784 25)" fill="#C05040"/>
<rect x="774" y="25" width="25" height="5" transform="rotate(-90 774 25)" fill="#C05040"/>
<rect x="484" y="25" width="25" height="5" transform="rotate(-90 484 25)" fill="#40C06B"/>
<rect x="514" y="25" width="25" height="5" transform="rotate(-90 514 25)" fill="#40C06B"/>
<rect x="504" y="25" width="25" height="5" transform="rotate(-90 504 25)" fill="#40C06B"/>
<rect x="494" y="25" width="25" height="5" transform="rotate(-90 494 25)" fill="#40C06B"/>
<rect x="524" y="25" width="25" height="5" transform="rotate(-90 524 25)" fill="#40C06B"/>
<rect x="554" y="25" width="25" height="5" transform="rotate(-90 554 25)" fill="#40C06B"/>
<rect x="544" y="25" width="25" height="5" transform="rotate(-90 544 25)" fill="#40C06B"/>
<rect x="534" y="25" width="25" height="5" transform="rotate(-90 534 25)" fill="#40C06B"/>
<rect x="644" y="25" width="25" height="5" transform="rotate(-90 644 25)" fill="#40C06B"/>
<rect x="674" y="25" width="25" height="5" transform="rotate(-90 674 25)" fill="#40C06B"/>
<rect x="664" y="25" width="25" height="5" transform="rotate(-90 664 25)" fill="#40C06B"/>
<rect x="654" y="25" width="25" height="5" transform="rotate(-90 654 25)" fill="#40C06B"/>
<rect x="684" y="25" width="25" height="5" transform="rotate(-90 684 25)" fill="#40C06B"/>
<rect x="714" y="25" width="25" height="5" transform="rotate(-90 714 25)" fill="#40C06B"/>
<rect x="704" y="25" width="25" height="5" transform="rotate(-90 704 25)" fill="#40C06B"/>
<rect x="694" y="25" width="25" height="5" transform="rotate(-90 694 25)" fill="#40C06B"/>
<rect x="564" y="25" width="25" height="5" transform="rotate(-90 564 25)" fill="#40C06B"/>
<rect x="594" y="25" width="25" height="5" transform="rotate(-90 594 25)" fill="#40C06B"/>
<rect x="584" y="25" width="25" height="5" transform="rotate(-90 584 25)" fill="#40C06B"/>
<rect x="574" y="25" width="25" height="5" transform="rotate(-90 574 25)" fill="#BBB542"/>
<rect x="604" y="25" width="25" height="5" transform="rotate(-90 604 25)" fill="#40C06B"/>
<rect x="634" y="25" width="25" height="5" transform="rotate(-90 634 25)" fill="#40C06B"/>
<rect x="624" y="25" width="25" height="5" transform="rotate(-90 624 25)" fill="#40C06B"/>
<rect x="614" y="25" width="25" height="5" transform="rotate(-90 614 25)" fill="#40C06B"/>
<rect x="244" y="25" width="25" height="5" transform="rotate(-90 244 25)" fill="#65BD5F"/>
<rect x="274" y="25" width="25" height="5" transform="rotate(-90 274 25)" fill="#6DBC5C"/>
<rect x="264" y="25" width="25" height="5" transform="rotate(-90 264 25)" fill="#6ABC5D"/>
<rect x="254" y="25" width="25" height="5" transform="rotate(-90 254 25)" fill="#67BC5E"/>
<rect x="284" y="25" width="25" height="5" transform="rotate(-90 284 25)" fill="#70BC5B"/>
<rect x="314" y="25" width="25" height="5" transform="rotate(-90 314 25)" fill="#78BB58"/>
<rect x="304" y="25" width="25" height="5" transform="rotate(-90 304 25)" fill="#75BB59"/>
<rect x="294" y="25" width="25" height="5" transform="rotate(-90 294 25)" fill="#72BB5A"/>
<rect x="404" y="25" width="25" height="5" transform="rotate(-90 404 25)" fill="#40C06B"/>
<rect x="434" y="25" width="25" height="5" transform="rotate(-90 434 25)" fill="#40C06B"/>
<rect x="424" y="25" width="25" height="5" transform="rotate(-90 424 25)" fill="#40C06B"/>
<rect x="414" y="25" width="25" height="5" transform="rotate(-90 414 25)" fill="#40C06B"/>
<rect x="444" y="25" width="25" height="5" transform="rotate(-90 444 25)" fill="#40C06B"/>
<rect x="474" y="25" width="25" height="5" transform="rotate(-90 474 25)" fill="#40C06B"/>
<rect x="464" y="25" width="25" height="5" transform="rotate(-90 464 25)" fill="#40C06B"/>
<rect x="454" y="25" width="25" height="5" transform="rotate(-90 454 25)" fill="#40C06B"/>
<rect x="324" y="25" width="25" height="5" transform="rotate(-90 324 25)" fill="#40C06B"/>
<rect x="354" y="25" width="25" height="5" transform="rotate(-90 354 25)" fill="#40C06B"/>
<rect x="344" y="25" width="25" height="5" transform="rotate(-90 344 25)" fill="#40C06B"/>
<rect x="334" y="25" width="25" height="5" transform="rotate(-90 334 25)" fill="#40C06B"/>
<rect x="364" y="25" width="25" height="5" transform="rotate(-90 364 25)" fill="#40C06B"/>
<rect x="394" y="25" width="25" height="5" transform="rotate(-90 394 25)" fill="#40C06B"/>
<rect x="384" y="25" width="25" height="5" transform="rotate(-90 384 25)" fill="#40C06B"/>
<rect x="374" y="25" width="25" height="5" transform="rotate(-90 374 25)" fill="#40C06B"/>
</g>
<defs>
<filter id="filter0_d_4_129" x="0" y="0" width="803" height="33" filterUnits="userSpaceOnUse" color-interpolation-filters="sRGB">
<feFlood flood-opacity="0" result="BackgroundImageFix"/>
<feColorMatrix in="SourceAlpha" type="matrix" values="0 0 0 0 0 0 0 0 0 0 0 0 0 0 0 0 0 0 127 0" result="hardAlpha"/>
<feOffset dy="4"/>
<feGaussianBlur stdDeviation="2"/>
<feComposite in2="hardAlpha" operator="out"/>
<feColorMatrix type="matrix" values="0 0 0 0 0 0 0 0 0 0 0 0 0 0 0 0 0 0 0.25 0"/>
<feBlend mode="normal" in2="BackgroundImageFix" result="effect1_dropShadow_4_129"/>
<feBlend mode="normal" in="SourceGraphic" in2="effect1_dropShadow_4_129" result="shape"/>
</filter>
</defs>
</svg>
